<svg xmlns="http://www.w3.org/2000/svg" viewBox="0 0 512 307"><g fill="#232F3E"><path d="M192 133c-15-2-26 2-33 13-7 11-8 23-4 35 4 12 13 22 26 25 15 3 27-2 34-13 7-11 8-23 4-35-4-12-14-22-27-25zm-8 62c-7 2-12 0-16-5s-6-12-4-19 6-13 13-15 12 0 16 5 6 12 4 19-6 13-13 15zM227 215c-1 10-7 16-16 17-9 1-16-4-19-12-3-8-2-17 4-22 6-5 14-7 22-5 9 2 15 8 16 17 1 5-1 10-7 15z"/><path d="M470 48v211c0 26-21 48-48 48H90c-27 0-48-22-48-48V48C42 22 63 0 90 0h332c27 0 48 22 48 48zm-48 0H90v211h332V48z"/><path d="M266 129c-16-1-29 3-38 15s-12 28-6 44c6 16 19 28 36 30 18 2 33-5 42-19s12-32 6-49c-6-17-20-29-37-31zm-10 78c-10 1-18-2-23-10-5-8-6-18-2-28s11-17 22-19 19 2 24 10 6 18 2 28c-4 10-12 17-23 19zM388 169c-12-29-38-47-69-45s-56 32-56 63c0 23 11 44 30 55 19 11 42 12 62 3 25-11 41-35 41-62 0-9-2-18-8-24zM321 247c-17 0-33-7-45-19-12-12-19-28-18-45 1-17 10-33 24-44 14-11 32-15 49-12 17 3 32 12 42 25s15 30 12 48c-3 18-13 33-28 42-16 9-33 10-46 5z"/></g>
  <path d="M388 169c-12-29-38-47-69-45s-56 32-56 63c0 23 11 44 30 55 19 11 42 12 62 3 25-11 41-35 41-62 0-9-2-18-8-24z" fill="#FF9900"/>
  <path d="M321 247c-17 0-33-7-45-19-12-12-19-28-18-45 1-17 10-33 24-44 14-11 32-15 49-12 17 3 32 12 42 25s15 30 12 48c-3 18-13 33-28 42-16 9-33 10-46 5z" fill="#232F3E"/>
  <path d="M266 129c-16-1-29 3-38 15s-12 28-6 44c6 16 19 28 36 30 18 2 33-5 42-19s12-32 6-49c-6-17-20-29-37-31zm-10 78c-10 1-18-2-23-10-5-8-6-18-2-28s11-17 22-19 19 2 24 10 6 18 2 28c-4 10-12 17-23 19zM192 133c-15-2-26 2-33 13-7 11-8 23-4 35 4 12 13 22 26 25 15 3 27-2 34-13 7-11 8-23 4-35-4-12-14-22-27-25zm-8 62c-7 2-12 0-16-5s-6-12-4-19 6-13 13-15 12 0 16 5 6 12 4 19-6 13-13 15zM227 215c-1 10-7 16-16 17-9 1-16-4-19-12-3-8-2-17 4-22 6-5 14-7 22-5 9 2 15 8 16 17 1 5-1 10-7 15z" fill="#FFF"/>
</svg>
