<svg xmlns="http://www.w3.org/2000/svg" viewBox="0 0 800 800"><path fill="#0094CF" d="M129.2,341.6c-4.4-4.8-10-6.9-16.7-6.2c-6.7,0.7-12.2,4-15.5,9.4c-3.3,5.4-4,11.8-1.9,18.4l24.4,75.1c2.1,6.6,6.6,12.2,12.8,15.9  c6.2,3.7,13.4,5,20.6,3.6l21.6-4.1c4.4-0.8,8.2-3,11.3-6.1c3-3.1,5-7.1,5.5-11.4l2.9-24.6c0-0.1,0-0.2,0-0.3c0-0.1-0.1-0.2-0.1-0.3  c0-0.1-0.1-0.2-0.1-0.3c-0.1-0.1-0.1-0.2-0.2-0.3c-0.1-0.1-0.1-0.2-0.2-0.2c-0.1,0-0.2-0.1-0.2-0.2c-0.1-0.1-0.2-0.2-0.3-0.2  c-0.1,0-0.2-0.1-0.2-0.1c-0.1-0.1-0.2-0.2-0.3-0.2c-0.1,0-0.2-0.1-0.3-0.1c-0.1,0-0.1-0.1-0.2-0.1c-0.1-0.1-0.2-0.1-0.3-0.2  c-0.1,0-0.2,0-0.2,0c-0.1,0-0.1,0-0.2-0.1c-0.1-0.1-0.2-0.1-0.3-0.1c-0.1,0-0.2-0.1-0.3-0.1c-0.1,0-0.2,0-0.3,0l-37-3.6  c-2.3-0.2-4.6-0.8-6.7-1.7l-35.3-15.1c-3.3-1.4-6.3-3.5-8.8-6.1c-2.5-2.6-4.5-5.7-5.7-9.2L129.2,341.6z"/><path fill="#0094CF" d="M225.2,323.8c-0.1-0.2-0.2-0.4-0.3-0.5c0-0.1,0-0.1,0-0.2c-0.1-0.1-0.1-0.2-0.2-0.3s-0.1-0.2-0.2-0.3c0,0,0-0.1-0.1-0.1  c-0.1-0.1-0.2-0.2-0.2-0.3c0,0-0.1-0.1-0.1-0.1c-0.1-0.1-0.2-0.2-0.2-0.2c-0.1,0-0.1-0.1-0.2-0.1c-0.1-0.1-0.2-0.2-0.3-0.2  c-0.1,0-0.1,0-0.2,0c-0.1-0.1-0.2-0.1-0.3-0.2c-0.1,0-0.1,0-0.2-0.1c-0.1,0-0.1,0-0.2-0.1c-0.1,0-0.2-0.1-0.3-0.1  c-0.1,0-0.2,0-0.3,0c-0.1,0-0.1,0-0.2,0c-0.1,0-0.2,0-0.3,0l-33.1,0.2c-12,0.1-23.7,3-34.5,8.2l-26,12.5c-4.4,2.1-7.5,5.8-9,10.2  l-4,11.5c-1.4,4.4,0.1,9.4,3.7,12.5l26.2,22.6c3.6,3.1,8.3,4.4,12.9,3.5l33.8-6.7c0.1,0,0.1,0,0.2,0c0.1,0,0.2,0,0.3-0.1  c0.1,0,0.1-0.1,0.2-0.1c0.1,0,0.2,0,0.3-0.1c0.1,0,0.1-0.1,0.2-0.1c0.1,0,0.2,0,0.2-0.1c0.1-0.1,0.2-0.1,0.3-0.2c0.1,0,0.1,0,0.2,0  c0.1-0.1,0.2-0.1,0.3-0.2c0.1,0,0.2-0.1,0.2-0.1c0.1-0.1,0.1-0.2,0.2-0.2c0.1-0.1,0.2-0.1,0.2-0.2c0,0,0.1,0,0.1-0.1  c0.1-0.1,0.2-0.2,0.2-0.3c0.1-0.1,0.1-0.1,0.1-0.2c0.1-0.1,0.2-0.2,0.2-0.4c0.1-0.1,0.1-0.2,0.1-0.3c0.1-0.1,0.1-0.2,0.1-0.3v-23.3  c-0.1-7.1-1.3-14.2-3.8-20.9C227.1,328,226.2,325.8,225.2,323.8z"/><path fill="#0094CF" d="M305,306.2c-0.1-0.1-0.2-0.2-0.2-0.3c0,0-0.1-0.1-0.1-0.1c-0.1-0.1-0.1-0.2-0.2-0.3s-0.1-0.2-0.2-0.3c0,0,0,0,0-0.1  c-0.1-0.1-0.2-0.2-0.2-0.3c0,0-0.1-0.1-0.1-0.1c-0.1-0.1-0.2-0.2-0.2-0.2c-0.1,0-0.1-0.1-0.2-0.1c-0.1-0.1-0.2-0.2-0.3-0.2  c-0.1,0-0.1,0-0.2,0c-0.1-0.1-0.2-0.1-0.3-0.2c-0.1,0-0.1,0-0.2-0.1c-0.1,0-0.1,0-0.2-0.1c-0.1,0-0.2-0.1-0.3-0.1  c-0.1,0-0.2,0-0.3,0c-0.1,0-0.1,0-0.2,0c-0.1,0-0.2,0-0.3,0H264c-6.8-0.2-13.6,0.3-20.2,1.6c-6.6,1.2-13,3.3-18.9,6  c-5.9,2.7-11.4,6.1-16.4,9.9c-5,3.8-9.4,8.1-13.2,12.8c-2.3,2.8-4.2,5.9-5.7,9.2c-1.5,3.3-2.5,6.8-2.9,10.4  c-0.4,3.6-0.3,7.3,0.4,10.9c0.7,3.6,1.9,7.1,3.7,10.4c1.8,3.3,4.1,6.4,6.9,9.1l39.5,38.7c5.9,5.8,13.7,8.8,21.8,8.8h21.9  c0.1,0,0.1,0,0.2,0c0.1,0,0.2,0,0.3,0c0.1,0,0.1-0.1,0.2-0.1c0.1,0,0.2,0,0.3-0.1c0.1,0,0.1-0.1,0.2-0.1c0.1,0,0.2-0.1,0.2-0.1  c0.1-0.1,0.2-0.1,0.3-0.2c0.1,0,0.2,0,0.2,0c0.1-0.1,0.2-0.1,0.3-0.2c0.1,0,0.1,0,0.2-0.1c0.1-0.1,0.2-0.2,0.3-0.2  c0.1-0.1,0.1-0.1,0.2-0.2c0.1-0.1,0.1-0.2,0.2-0.2c0.1-0.1,0.2-0.2,0.2-0.3c0.1-0.1,0.1-0.2,0.1-0.3c0.1-0.1,0.1-0.2,0.1-0.3V317  c-0.1-4.2-1.2-8.4-3.3-12.2c-2.1-3.8-5.1-7.2-8.9-9.9c-3.8-2.7-8.3-4.6-13.2-5.7c-4.9-1.1-10-1.4-15.1-0.9l-22.1,1.9v-13.8  c0.1-1.9,0.7-3.8,1.7-5.5s2.5-3.1,4.2-4.2c1.7-1.1,3.6-1.8,5.6-2c2-0.2,4-0.1,5.9,0.5l27.1,9.4c0.1,0,0.1,0.1,0.2,0.1  c0.1,0,0.2,0,0.3-0.1c0.1,0,0.1,0,0.2-0.1c0.1-0.1,0.2-0.1,0.3-0.1c0.1-0.1,0.1-0.1,0.2-0.2c0.1-0.1,0.2-0.1,0.3-0.2  c0.1-0.1,0.1-0.1,0.2-0.2c0.1-0.1,0.2-0.1,0.2-0.2c0.1-0.1,0.1-0.2,0.2-0.2c0.1-0.1,0.2-0.2,0.2-0.3c0.1-0.1,0.1-0.2,0.1-0.3  c0-0.1,0.1-0.2,0.1-0.3v-12.9L305,306.2z"/><path fill="#0094CF" d="M385.9,289.4c-0.1-0.1-0.1-0.2-0.2-0.2c0,0-0.1-0.1-0.1-0.1c-0.1-0.1-0.1-0.2-0.2-0.3c-0.1-0.1-0.1-0.2-0.2-0.3  c-0.1-0.1-0.2-0.2-0.2-0.3c0,0-0.1-0.1-0.1-0.1c-0.1-0.1-0.2-0.2-0.2-0.2c-0.1,0-0.1-0.1-0.2-0.1c-0.1-0.1-0.2-0.2-0.3-0.2  c-0.1,0-0.1,0-0.2,0c-0.1-0.1-0.2-0.1-0.3-0.2c-0.1,0-0.1,0-0.2-0.1c-0.1,0-0.1,0-0.2-0.1c-0.1,0-0.2-0.1-0.3-0.1  c-0.1,0-0.2,0-0.3,0c-0.1,0-0.1,0-0.2,0c-0.1,0-0.2,0-0.3,0h-40.4c-3.7-0.1-7.4,0.3-11.1,1.1c-3.7,0.8-7.2,2.1-10.6,3.8  c-3.4,1.7-6.6,3.9-9.5,6.5c-2.9,2.6-5.4,5.6-7.5,9c-1.1,1.8-2,3.7-2.7,5.6c-0.7,2-1.1,4-1.2,6.1c-0.1,2.1,0.1,4.1,0.5,6.2  c0.4,2.1,1.1,4.1,2,6c0.9,1.9,2.1,3.8,3.5,5.5l50.6,62.4c4.3,5.3,10.2,8.3,16.5,8.3h22.7c0.1,0,0.1,0,0.2,0c0.1,0,0.2,0,0.3,0  c0.1,0,0.1-0.1,0.2-0.1c0.1,0,0.2-0.1,0.3-0.1c0.1-0.1,0.1-0.1,0.2-0.1c0.1,0,0.2-0.1,0.2-0.1c0.1-0.1,0.2-0.1,0.3-0.2  c0.1,0,0.2,0,0.2,0c0.1-0.1,0.2-0.1,0.3-0.2c0.1,0,0.1,0,0.2-0.1c0.1-0.1,0.2-0.2,0.3-0.2c0.1-0.1,0.1-0.1,0.2-0.2  c0.1-0.1,0.1-0.2,0.2-0.2c0.1-0.1,0.2-0.2,0.2-0.3c0.1-0.1,0.1-0.2,0.1-0.3c0.1-0.1,0.1-0.2,0.1-0.3V302  c-0.1-3.6-1.1-7.2-2.9-10.5c-1.8-3.3-4.4-6.2-7.7-8.5c-3.3-2.3-7.2-4-11.3-4.9c-4.1-0.9-8.4-1.1-12.6-0.5l-22.1,3.1V274  c0.1-1.6,0.6-3.3,1.5-4.7c0.9-1.5,2.1-2.7,3.6-3.6c1.5-0.9,3.1-1.5,4.8-1.7c1.7-0.2,3.4-0.1,5.1,0.5l26.9,9.4  c0.1,0,0.1,0.1,0.2,0.1c0.1,0,0.2,0,0.3-0.1c0.1,0,0.1,0,0.2-0.1c0.1-0.1,0.2-0.1,0.3-0.1c0.1-0.1,0.1-0.1,0.2-0.2  c0.1-0.1,0.2-0.1,0.3-0.2c0.1-0.1,0.1-0.1,0.2-0.2c0.1-0.1,0.2-0.1,0.2-0.2c0.1-0.1,0.1-0.2,0.2-0.2c0.1-0.1,0.2-0.2,0.2-0.3  c0.1-0.1,0.1-0.2,0.1-0.3c0-0.1,0.1-0.2,0.1-0.3v-11.2L385.9,289.4z"/><path fill="#0094CF" d="M466.8,272.6c-0.1-0.1-0.1-0.2-0.2-0.2c0,0-0.1-0.1-0.1-0.1c-0.1-0.1-0.1-0.2-0.2-0.3s-0.1-0.2-0.2-0.3  c-0.1-0.1-0.2-0.2-0.2-0.3c0,0-0.1-0.1-0.1-0.1c-0.1-0.1-0.2-0.2-0.2-0.2c-0.1,0-0.1-0.1-0.2-0.1c-0.1-0.1-0.2-0.2-0.3-0.2  c-0.1,0-0.1,0-0.2,0c-0.1-0.1-0.2-0.1-0.3-0.2c-0.1,0-0.1,0-0.2-0.1c-0.1,0-0.1,0-0.2-0.1c-0.1,0-0.2-0.1-0.3-0.1  c-0.1,0-0.2,0-0.3,0c-0.1,0-0.1,0-0.2,0c-0.1,0-0.2,0-0.3,0h-40.4c-3.3-0.1-6.7,0.3-9.9,1c-3.2,0.7-6.4,1.8-9.4,3.3  c-3,1.5-5.8,3.4-8.4,5.6c-2.6,2.2-4.9,4.8-6.8,7.7c-1,1.5-1.7,3.1-2.3,4.8c-0.6,1.7-0.9,3.4-1,5.2c-0.1,1.8,0.1,3.5,0.5,5.3  c0.4,1.8,1,3.5,1.7,5.2c0.8,1.7,1.7,3.3,2.8,4.8l50.6,62.4c3.8,4.7,8.9,7.3,14.4,7.3h22.7c0.1,0,0.1,0,0.2,0c0.1,0,0.2,0,0.3,0  c0.1,0,0.1-0.1,0.2-0.1c0.1,0,0.2-0.1,0.3-0.1c0.1-0.1,0.1-0.1,0.2-0.1c0.1,0,0.2-0.1,0.2-0.1c0.1-0.1,0.2-0.1,0.3-0.2  c0.1,0,0.2,0,0.2,0c0.1-0.1,0.2-0.1,0.3-0.2c0.1,0,0.1,0,0.2-0.1c0.1-0.1,0.2-0.2,0.3-0.2c0.1-0.1,0.1-0.1,0.2-0.2  c0.1-0.1,0.1-0.2,0.2-0.2c0.1-0.1,0.2-0.2,0.2-0.3c0.1-0.1,0.1-0.2,0.1-0.3c0.1-0.1,0.1-0.2,0.1-0.3V285.2  c-0.1-3.1-1-6.2-2.5-9.1c-1.6-2.9-3.8-5.4-6.7-7.4c-2.9-2-6.3-3.5-9.8-4.3c-3.6-0.8-7.3-0.9-11-0.4l-22.1,3.1v-11.2  c0.1-1.4,0.5-2.8,1.3-4.1c0.8-1.3,1.9-2.3,3.1-3.1c1.3-0.8,2.7-1.3,4.2-1.5c1.5-0.2,3,0,4.4,0.4l26.9,9.4c0.1,0,0.1,0.1,0.2,0.1  c0.1,0,0.2,0,0.3-0.1c0.1,0,0.1,0,0.2-0.1c0.1-0.1,0.2-0.1,0.3-0.1c0.1-0.1,0.1-0.1,0.2-0.2c0.1-0.1,0.2-0.1,0.3-0.2  c0.1-0.1,0.1-0.1,0.2-0.2c0.1-0.1,0.2-0.1,0.2-0.2c0.1-0.1,0.1-0.2,0.2-0.2c0.1-0.1,0.2-0.2,0.2-0.3c0.1-0.1,0.1-0.2,0.1-0.3  c0-0.1,0.1-0.2,0.1-0.3v-11.2L466.8,272.6z"/><path fill="#0094CF" d="M547.7,255.8c-0.1-0.1-0.1-0.2-0.2-0.2c0,0-0.1-0.1-0.1-0.1c-0.1-0.1-0.1-0.2-0.2-0.3s-0.1-0.2-0.2-0.3  c-0.1-0.1-0.2-0.2-0.2-0.3c0,0-0.1-0.1-0.1-0.1c-0.1-0.1-0.2-0.2-0.2-0.2c-0.1,0-0.1-0.1-0.2-0.1c-0.1-0.1-0.2-0.2-0.3-0.2  c-0.1,0-0.1,0-0.2,0c-0.1-0.1-0.2-0.1-0.3-0.2c-0.1,0-0.1,0-0.2-0.1c-0.1,0-0.1,0-0.2-0.1c-0.1,0-0.2-0.1-0.3-0.1  c-0.1,0-0.2,0-0.3,0c-0.1,0-0.1,0-0.2,0c-0.1,0-0.2,0-0.3,0h-40.4c-3-0.1-5.9,0.3-8.8,1c-2.9,0.6-5.7,1.6-8.3,3  c-2.6,1.4-5.1,3.1-7.3,5c-2.2,2-4.2,4.3-5.9,6.8c-0.8,1.3-1.5,2.7-2,4.2c-0.5,1.5-0.7,3-0.8,4.5c-0.1,1.5,0.1,3.1,0.4,4.6  c0.3,1.5,0.8,3,1.5,4.5c0.7,1.5,1.5,2.9,2.5,4.2l50.6,62.4c3.4,4.2,8.1,6.5,12.9,6.5h22.7c0.1,0,0.1,0,0.2,0c0.1,0,0.2,0,0.3,0  c0.1,0,0.1-0.1,0.2-0.1c0.1,0,0.2-0.1,0.3-0.1c0.1-0.1,0.1-0.1,0.2-0.1c0.1,0,0.2-0.1,0.2-0.1c0.1-0.1,0.2-0.1,0.3-0.2  c0.1,0,0.2,0,0.2,0c0.1-0.1,0.2-0.1,0.3-0.2c0.1,0,0.1,0,0.2-0.1c0.1-0.1,0.2-0.2,0.3-0.2c0.1-0.1,0.1-0.1,0.2-0.2  c0.1-0.1,0.1-0.2,0.2-0.2c0.1-0.1,0.2-0.2,0.2-0.3c0.1-0.1,0.1-0.2,0.1-0.3c0.1-0.1,0.1-0.2,0.1-0.3V268.4  c-0.1-2.8-0.9-5.5-2.3-7.9c-1.4-2.5-3.4-4.7-5.9-6.5c-2.5-1.8-5.5-3.1-8.6-3.8c-3.1-0.7-6.3-0.8-9.5-0.4l-22.1,3.1V242  c0.1-1.2,0.4-2.5,1.1-3.6c0.7-1.1,1.6-2,2.7-2.7c1.1-0.7,2.3-1.1,3.6-1.3c1.3-0.2,2.6,0,3.8,0.4l26.9,9.4c0.1,0,0.1,0.1,0.2,0.1  c0.1,0,0.2,0,0.3-0.1c0.1,0,0.1,0,0.2-0.1c0.1-0.1,0.2-0.1,0.3-0.1c0.1-0.1,0.1-0.1,0.2-0.2c0.1-0.1,0.2-0.1,0.3-0.2  c0.1-0.1,0.1-0.1,0.2-0.2c0.1-0.1,0.2-0.1,0.2-0.2c0.1-0.1,0.1-0.2,0.2-0.2c0.1-0.1,0.2-0.2,0.2-0.3c0.1-0.1,0.1-0.2,0.1-0.3  c0-0.1,0.1-0.2,0.1-0.3v-11.2L547.7,255.8z"/><path fill="#0094CF" d="M628.7,239c-0.1-0.1-0.1-0.2-0.2-0.2c0,0-0.1-0.1-0.1-0.1c-0.1-0.1-0.1-0.2-0.2-0.3c-0.1-0.1-0.1-0.2-0.2-0.3  c-0.1-0.1-0.2-0.2-0.2-0.3c0,0-0.1-0.1-0.1-0.1c-0.1-0.1-0.2-0.2-0.2-0.2c-0.1,0-0.1-0.1-0.2-0.1c-0.1-0.1-0.2-0.2-0.3-0.2  c-0.1,0-0.1,0-0.2,0c-0.1-0.1-0.2-0.1-0.3-0.2c-0.1,0-0.1,0-0.2-0.1c-0.1,0-0.1,0-0.2-0.1c-0.1,0-0.2-0.1-0.3-0.1  c-0.1,0-0.2,0-0.3,0c-0.1,0-0.1,0-0.2,0c-0.1,0-0.2,0-0.3,0H588c-2.6-0.1-5.3,0.3-7.8,0.9c-2.6,0.6-5.1,1.5-7.4,2.7  c-2.3,1.2-4.5,2.8-6.5,4.6c-2,1.8-3.7,3.9-5.2,6.2c-0.7,1.2-1.3,2.4-1.8,3.7c-0.4,1.3-0.7,2.7-0.7,4.1c0,1.4,0.1,2.7,0.4,4.1  c0.3,1.4,0.7,2.7,1.3,4c0.6,1.3,1.3,2.6,2.2,3.7l50.6,62.4c3,3.7,7.2,5.7,11.5,5.7h22.7c0.1,0,0.1,0,0.2,0c0.1,0,0.2,0,0.3,0  c0.1,0,0.1-0.1,0.2-0.1c0.1,0,0.2-0.1,0.3-0.1c0.1-0.1,0.1-0.1,0.2-0.1c0.1,0,0.2-0.1,0.2-0.1c0.1-0.1,0.2-0.1,0.3-0.2  c0.1,0,0.2,0,0.2,0c0.1-0.1,0.2-0.1,0.3-0.2c0.1,0,0.1,0,0.2-0.1c0.1-0.1,0.2-0.2,0.3-0.2c0.1-0.1,0.1-0.1,0.2-0.2  c0.1-0.1,0.1-0.2,0.2-0.2c0.1-0.1,0.2-0.2,0.2-0.3c0.1-0.1,0.1-0.2,0.1-0.3c0.1-0.1,0.1-0.2,0.1-0.3V251.5  c-0.1-2.4-0.8-4.9-2-7.1c-1.2-2.2-3-4.2-5.2-5.7c-2.2-1.5-4.8-2.6-7.6-3.2c-2.8-0.6-5.6-0.6-8.4-0.3l-22.1,3.1v-9.1  c0.1-1.1,0.4-2.2,0.9-3.2c0.6-1,1.3-1.8,2.2-2.5c0.9-0.6,1.9-1,3-1.2c1.1-0.1,2.2,0,3.3,0.3l26.9,9.4c0.1,0,0.1,0.1,0.2,0.1  c0.1,0,0.2,0,0.3-0.1c0.1,0,0.1,0,0.2-0.1c0.1-0.1,0.2-0.1,0.3-0.1c0.1-0.1,0.1-0.1,0.2-0.2c0.1-0.1,0.2-0.1,0.3-0.2  c0.1-0.1,0.1-0.1,0.2-0.2c0.1-0.1,0.2-0.1,0.2-0.2c0.1-0.1,0.1-0.2,0.2-0.2c0.1-0.1,0.2-0.2,0.2-0.3c0.1-0.1,0.1-0.2,0.1-0.3  c0-0.1,0.1-0.2,0.1-0.3v-11.2L628.7,239z"/><path fill="#0094CF" d="M685.9,235.1c-2.4,1.4-4.8,2.7-7.1,4.1c-2.3,1.4-4.5,2.9-6.6,4.5c-2.1,1.6-4.1,3.4-6,5.2c-1.9,1.8-3.7,3.8-5.4,5.9  c-0.9,1.1-1.7,2.2-2.4,3.4c-0.7,1.2-1.2,2.5-1.5,3.8c-0.3,1.3-0.5,2.5-0.5,3.8c0.1,2.5,0.7,5,1.8,7.3l22.4,47.1  c2.5,5.2,7,8.8,12.3,9.8l20.4,3.7c0.1,0,0.2,0,0.3,0c0.1,0,0.2-0.1,0.2-0.1c0.1,0,0.1-0.1,0.2-0.1c0.1,0,0.1-0.1,0.2-0.2  c0.1-0.1,0.1-0.1,0.2-0.2c0.1,0,0.1-0.1,0.1-0.2c0.1-0.1,0.1-0.1,0.1-0.2c0.1-0.1,0.1-0.2,0.1-0.3c0.1-0.1,0.1-0.2,0.1-0.3  c0-0.1,0.1-0.2,0.1-0.3c0-0.1,0.1-0.2,0.1-0.3c0-0.1,0-0.2,0-0.3V252.3c-0.4-7-3.4-13.6-8.5-18.4C691,229,687.9,231.8,685.9,235.1z"/><path fill="#0094CF" d="M660,207.2c-0.1-0.2-0.2-0.3-0.3-0.5c0-0.1,0-0.1-0.1-0.2c-0.1-0.1-0.1-0.2-0.2-0.3c0,0-0.1-0.1-0.1-0.1  c-0.1-0.1-0.2-0.2-0.2-0.3c0-0.1-0.1-0.1-0.1-0.2c-0.1-0.1-0.2-0.2-0.2-0.2c-0.1,0-0.1-0.1-0.2-0.1c-0.1-0.1-0.2-0.2-0.3-0.2  c-0.1,0-0.1,0-0.2,0c-0.1-0.1-0.2-0.1-0.3-0.2c-0.1,0-0.1,0-0.2-0.1c-0.1,0-0.1,0-0.2-0.1c-0.1,0-0.2-0.1-0.3-0.1  c-0.1,0-0.2,0-0.3,0c-0.1,0-0.1,0-0.2,0c-0.1,0-0.2,0-0.3,0h-29.2c-8,0-15.8,1.6-23.1,4.7c-7.3,3.1-14,7.6-19.8,13.2l-3.3,3.2  c-0.9,0.9-1.3,2.1-1.3,3.4c0,1.3,0.4,2.5,1.3,3.4l21.2,21.2c0.9,0.9,2.1,1.3,3.4,1.3c1.3,0,2.5-0.4,3.4-1.3l27.1-27.1  c1-1,1.5-2.2,1.6-3.6c0.1-1.4-0.3-2.7-1.1-3.9l-4.7-6.5c-0.9-1.2-1.3-2.7-1.2-4.2c0.1-1.5,0.7-2.9,1.7-4l4.3-4.7  c0.9-1,2.1-1.6,3.4-1.8c1.3-0.2,2.6,0.1,3.8,0.7l27.3,13.8c0.1,0,0.1,0,0.2,0c0.1,0,0.2,0,0.3-0.1c0.1,0,0.1,0,0.2-0.1  c0.1,0,0.2-0.1,0.2-0.1c0.1-0.1,0.2-0.1,0.2-0.2c0.1,0,0.2,0,0.2-0.1c0.1-0.1,0.2-0.1,0.2-0.2c0.1,0,0.1,0,0.2-0.1  c0.1-0.1,0.2-0.2,0.2-0.2c0.1-0.1,0.1-0.1,0.1-0.2c0.1-0.1,0.1-0.2,0.2-0.3c0.1-0.1,0.1-0.2,0.1-0.3c0-0.1,0.1-0.2,0.1-0.3  c0-0.1,0.1-0.2,0.1-0.3c0-0.1,0-0.2,0-0.3l-0.2-13.6C660.3,207.9,660.2,207.5,660,207.2z"/></svg>
